<?xml version="1.0" encoding="UTF-8"?>
<!--Generator: Apple Native CoreSVG 232.5-->
<!DOCTYPE svg
PUBLIC "-//W3C//DTD SVG 1.1//EN"
       "http://www.w3.org/Graphics/SVG/1.1/DTD/svg11.dtd">
<svg version="1.1" xmlns="http://www.w3.org/2000/svg" xmlns:xlink="http://www.w3.org/1999/xlink" width="19.9197" height="19.9218">
 <g>
  <rect height="19.9218" opacity="0" width="19.9197" x="0" y="0"/>
  <path d="M9.95469 19.9094C15.3993 19.9094 19.9197 15.3993 19.9197 9.95469C19.9197 4.51006 15.389 0 9.94434 0C4.50795 0 4.44089e-16 4.51006 4.44089e-16 9.95469C4.44089e-16 15.3993 4.5183 19.9094 9.95469 19.9094ZM9.95469 18.2559C5.35751 18.2559 1.67209 14.5622 1.67209 9.95469C1.67209 5.34716 5.34716 1.6535 9.94434 1.6535C14.5519 1.6535 18.2559 5.34716 18.2559 9.95469C18.2559 14.5622 14.5622 18.2559 9.95469 18.2559Z" fill="#ff4c4c"/>
  <path d="M2.24295 15.107C2.24295 15.4981 2.57305 15.8289 2.96491 15.8289L16.9559 15.8289C17.347 15.8289 17.6771 15.4981 17.6771 15.107C17.6771 14.7091 17.3478 14.385 16.9559 14.385L4.70801 14.385L13.7024 5.38985C13.9843 5.10801 13.982 4.65055 13.7024 4.3687C13.4206 4.08911 12.9609 4.0861 12.6805 4.3687L2.45696 14.5983C2.33263 14.7234 2.24295 14.9186 2.24295 15.107ZM10.3175 15.1444L11.7606 15.1444C11.8011 12.6929 10.8142 10.422 9.13269 8.78772L8.1085 9.80735C9.53228 11.1771 10.3602 13.078 10.3175 15.1444Z" fill="#ff4c4c"/>
 </g>
</svg>
